<svg xmlns="http://www.w3.org/2000/svg" xmlns:xlink="http://www.w3.org/1999/xlink" viewBox="0,0,256,256" width="64px" height="64px" fill-rule="nonzero"><g fill="none" fill-rule="nonzero" stroke="none" stroke-width="none" stroke-linecap="none" stroke-linejoin="none" stroke-miterlimit="10" stroke-dasharray="" stroke-dashoffset="0" font-family="none" font-weight="none" font-size="none" text-anchor="none" style="mix-blend-mode: normal"><g transform="scale(4,4)"><path d="M54,20c0,-5.523 -4.477,-10 -10,-10h-12h-12c-5.523,0 -10,4.477 -10,10v24.008c0,5.523 4.477,10 10,10h12h12c5.523,0 10,-4.477 10,-10z" fill="#c0259f" stroke="none" stroke-width="1" stroke-linecap="butt" stroke-linejoin="miter"></path><ellipse cx="32" cy="61" rx="20" ry="3" fill="#000000" stroke="none" stroke-width="1" stroke-linecap="butt" stroke-linejoin="miter" opacity="0.3"></ellipse><path d="M14.01,12h-0.01c-2.24,1.69 -3.75,4.29 -3.97,7.25c-0.02,0.24 -0.03,0.5 -0.03,0.75v12c2.761,0 5,-2.239 5,-5v-7c0,-0.108 0.003,-0.221 0.017,-0.38c0.102,-1.375 0.778,-2.65 1.862,-3.525c0.048,-0.033 0.095,-0.068 0.142,-0.103c0.86,-0.649 1.89,-0.992 2.979,-0.992h5c2.761,0 5,-2.239 5,-5h-10c-2.25,0 -4.32,0.74 -5.99,2z" fill="#ffffff" stroke="none" stroke-width="1" stroke-linecap="butt" stroke-linejoin="miter" opacity="0.3"></path><path d="M54,44v-22c-2.761,0 -5,2.238 -5,5v17c0,2.757 -2.243,5 -5,5h-5c-2.761,0 -5,2.238 -5,5h10c5.523,0 10,-4.477 10,-10z" fill="#000000" stroke="none" stroke-width="1" stroke-linecap="butt" stroke-linejoin="miter" opacity="0.15"></path><path d="M13.5,23.5v-3.5c0,-0.153 0.005,-0.312 0.018,-0.459c0.135,-1.809 1.003,-3.46 2.396,-4.594l0.204,-0.152" fill="none" stroke="#ffffff" stroke-width="3" stroke-linecap="round" stroke-linejoin="round"></path><path d="M45,49h-25c-2.209,0 -4,-1.791 -4,-4v-10c0,-2.209 1.791,-4 4,-4h25c2.209,0 4,1.791 4,4v10c0,2.209 -1.791,4 -4,4z" fill="#ffffff" stroke="none" stroke-width="1" stroke-linecap="butt" stroke-linejoin="miter"></path><path d="M20.698,16.041l2.385,8.617v3.808c0,0.453 0.368,0.821 0.821,0.821h0.672c0.453,0 0.821,-0.368 0.821,-0.821v-3.808l2.415,-8.614c0.148,-0.525 -0.247,-1.044 -0.79,-1.044h-0.592c-0.385,0 -0.719,0.268 -0.802,0.644l-0.828,3.751c-0.273,1.283 -0.446,2.196 -0.526,2.739h-0.071c-0.114,-0.762 -0.287,-1.681 -0.526,-2.758l-0.796,-3.727c-0.08,-0.378 -0.415,-0.649 -0.802,-0.649h-0.589c-0.543,0 -0.936,0.517 -0.792,1.041zM30.805,18.647c-0.784,0 -1.417,0.154 -1.899,0.467c-0.482,0.309 -0.839,0.807 -1.066,1.489c-0.226,0.681 -0.338,1.583 -0.338,2.707v1.518c0,1.111 0.098,2.003 0.297,2.673c0.199,0.67 0.535,1.164 1.006,1.482c0.47,0.316 1.119,0.476 1.946,0.476c0.806,0 1.447,-0.157 1.917,-0.47c0.47,-0.313 0.81,-0.803 1.019,-1.479c0.209,-0.676 0.315,-1.569 0.315,-2.682v-1.518c0,-1.122 -0.107,-2.021 -0.322,-2.696c-0.215,-0.674 -0.557,-1.171 -1.023,-1.489c-0.466,-0.321 -1.081,-0.478 -1.852,-0.478zM36.048,18.851c-0.453,0 -0.821,0.368 -0.821,0.821v6.975c0,0.965 0.161,1.675 0.49,2.129c0.329,0.453 0.84,0.681 1.533,0.681c0.997,0 1.75,-0.482 2.248,-1.447h0.048l0.094,0.586c0.064,0.398 0.407,0.692 0.811,0.692h0.318c0.453,0 0.821,-0.368 0.821,-0.821v-8.793c0,-0.453 -0.368,-0.821 -0.821,-0.821h-0.705c-0.453,0 -0.821,0.368 -0.821,0.821v7.47c-0.09,0.193 -0.228,0.352 -0.416,0.477c-0.188,0.126 -0.381,0.188 -0.586,0.188c-0.238,0 -0.408,-0.098 -0.512,-0.297c-0.104,-0.199 -0.155,-0.533 -0.155,-1v-6.839c0,-0.453 -0.368,-0.821 -0.821,-0.821h-0.705zM30.751,20.262c0.329,0 0.562,0.172 0.692,0.518c0.13,0.345 0.193,0.895 0.193,1.644v3.251c0,0.771 -0.063,1.33 -0.193,1.67c-0.13,0.34 -0.361,0.509 -0.688,0.512c-0.329,0 -0.557,-0.172 -0.681,-0.512c-0.126,-0.34 -0.188,-0.898 -0.188,-1.67v-3.25c0,-0.748 0.063,-1.298 0.193,-1.644c0.131,-0.345 0.354,-0.519 0.672,-0.519z" fill="#ffffff" stroke="none" stroke-width="1" stroke-linecap="butt" stroke-linejoin="miter"></path><path d="M20.859,34.394h4.278c0.442,0 0.799,0.358 0.799,0.799v0c0,0.442 -0.358,0.799 -0.799,0.799h-1.171v9.64c0,0.453 -0.368,0.821 -0.821,0.821h-0.294c-0.453,0 -0.821,-0.368 -0.821,-0.821v-9.639h-1.171c-0.442,0 -0.799,-0.358 -0.799,-0.799v0c0,-0.442 0.357,-0.8 0.799,-0.8z" fill="#c0259f" stroke="none" stroke-width="1" stroke-linecap="butt" stroke-linejoin="miter"></path><path d="M26.165,37.645h0.345c0.453,0 0.821,0.368 0.821,0.821v5.648c0,0.392 0.044,0.674 0.13,0.84c0.087,0.168 0.228,0.251 0.43,0.251c0.172,0 0.34,-0.053 0.497,-0.159c0.159,-0.105 0.271,-0.241 0.349,-0.403v-6.178c0,-0.453 0.368,-0.821 0.821,-0.821h0.345c0.453,0 0.821,0.368 0.821,0.821l-0.003,7.167c0,0.453 -0.368,0.821 -0.821,0.821h-0.029c-0.404,0 -0.748,-0.294 -0.812,-0.694l-0.059,-0.386h-0.045c-0.423,0.816 -1.056,1.226 -1.899,1.226c-0.586,0 -1.014,-0.191 -1.292,-0.575c-0.278,-0.384 -0.419,-0.983 -0.419,-1.796v-5.762c-0.002,-0.453 0.366,-0.821 0.82,-0.821z" fill="#c0259f" stroke="none" stroke-width="1" stroke-linecap="butt" stroke-linejoin="miter"></path><path d="M32.741,33.95h0.267c0.453,0 0.821,0.368 0.821,0.821v3.82h0.015c0.172,-0.336 0.417,-0.605 0.734,-0.812c0.316,-0.206 0.658,-0.307 1.023,-0.307c0.47,0 0.837,0.125 1.104,0.374c0.268,0.25 0.462,0.652 0.582,1.207c0.119,0.557 0.177,1.328 0.177,2.315v1.393h0.003c0,1.313 -0.161,2.277 -0.477,2.895c-0.316,0.618 -0.807,0.929 -1.479,0.929c-0.374,0 -0.712,-0.087 -1.019,-0.259c-0.307,-0.172 -0.539,-0.408 -0.692,-0.706l-0.099,-0.053l-0.057,0.165c-0.06,0.403 -0.406,0.7 -0.812,0.7h-0.09c-0.453,0 -0.821,-0.368 -0.821,-0.821v-10.84c-0.001,-0.453 0.367,-0.821 0.82,-0.821zM41.044,37.475c0.679,0 1.202,0.125 1.566,0.374c0.363,0.25 0.62,0.64 0.77,1.166c0.148,0.527 0.223,1.256 0.223,2.185v0.689c0,0.453 -0.368,0.821 -0.821,0.821h-2.496v0.448c0,0.566 0.015,0.988 0.048,1.271c0.035,0.282 0.103,0.49 0.208,0.618c0.105,0.13 0.268,0.193 0.488,0.193c0.297,0 0.5,-0.116 0.611,-0.345c0.054,-0.112 0.096,-0.26 0.126,-0.445c0.066,-0.405 0.453,-0.679 0.863,-0.65c0.036,0.002 0.073,0.006 0.11,0.008c0.495,0.038 0.842,0.504 0.747,0.992c-0.103,0.527 -0.315,0.924 -0.61,1.189c-0.446,0.403 -1.074,0.604 -1.888,0.604c-0.977,0 -1.664,-0.309 -2.058,-0.922c-0.394,-0.613 -0.589,-1.56 -0.589,-2.845v-1.539c0,-1.322 0.205,-2.289 0.611,-2.899c0.405,-0.607 1.105,-0.913 2.091,-0.913zM41.001,38.817c-0.211,0 -0.369,0.065 -0.47,0.188c-0.101,0.125 -0.168,0.329 -0.2,0.611c-0.035,0.282 -0.048,0.711 -0.048,1.285v0.632h1.451v-0.632c0,-0.566 -0.018,-0.992 -0.056,-1.285c-0.036,-0.292 -0.107,-0.499 -0.208,-0.618c-0.101,-0.119 -0.257,-0.181 -0.469,-0.181zM34.709,38.882c-0.191,0 -0.367,0.076 -0.53,0.229c-0.163,0.154 -0.278,0.351 -0.345,0.589v5.002c0.087,0.154 0.2,0.268 0.34,0.345c0.139,0.076 0.287,0.116 0.452,0.116c0.211,0 0.376,-0.076 0.5,-0.229c0.125,-0.154 0.215,-0.412 0.268,-0.777c0.053,-0.363 0.078,-0.869 0.078,-1.511v-1.133c0,-0.69 -0.02,-1.221 -0.063,-1.596c-0.044,-0.374 -0.121,-0.643 -0.229,-0.801c-0.112,-0.157 -0.269,-0.234 -0.471,-0.234z" fill="#c0259f" stroke="none" stroke-width="1" stroke-linecap="butt" stroke-linejoin="miter"></path></g></g></svg>